<svg xmlns="http://www.w3.org/2000/svg" xmlns:xlink="http://www.w3.org/1999/xlink" width="146.6" height="74.337" viewBox="0 0 146.6 74.337">
    <defs>
        <clipPath id="clip-path">
            <path id="Tracé_30" data-name="Tracé 30" d="M0-49.248H146.6v-74.337H0Z" transform="translate(0 123.585)" fill="none"/>
        </clipPath>
    </defs>
    <g id="Groupe_8" data-name="Groupe 8" clip-path="url(#clip-path)">
        <g id="Groupe_3" data-name="Groupe 3" transform="translate(6.959 1.392)">
            <path id="Tracé_25" data-name="Tracé 25" d="M0-4.791l84-7.231" transform="translate(0 12.022)" fill="none" stroke="#00a66c" stroke-width="4.645"/>
        </g>
        <g id="Groupe_4" data-name="Groupe 4" transform="translate(11.332 61.621)">
            <path id="Tracé_26" data-name="Tracé 26" d="M0-7.5,135.151-18.826" transform="translate(0 18.826)" fill="none" stroke="#00a66c" stroke-width="4.645"/>
        </g>
        <g id="Groupe_5" data-name="Groupe 5" transform="translate(81.294 7.355)">
            <path id="Tracé_27" data-name="Tracé 27" d="M0-15.9a6.809,6.809,0,0,0,3.839.619c4.458-.39,6.785-3.706,6.41-7.988a8.319,8.319,0,0,0-3.394-5.645c-1.708-1.336-2.738-2.59-2.885-4.275A3.794,3.794,0,0,1,7.48-37.526a5.087,5.087,0,0,1,2.653.4l.582-2.244a5.761,5.761,0,0,0-3.192-.5A6.45,6.45,0,0,0,1.4-32.678c.2,2.246,1.556,4.037,3.426,5.607,1.715,1.406,2.709,2.663,2.872,4.524.215,2.457-1.072,4.727-3.918,4.941a5.836,5.836,0,0,1-3.236-.6Z" transform="translate(0 39.894)" fill="#00a66c"/>
        </g>
        <g id="Groupe_6" data-name="Groupe 6" transform="translate(0 8.809)">
            <path id="Tracé_28" data-name="Tracé 28" d="M-6.654-14.776l.837,7.142,2.457-.215L-6.2-31.439l-2.773.242L-16.7-6.682l2.527-.221,2.217-7.409Zm-4.738-1.6L-9.5-22.7c.494-1.635,1.015-3.767,1.451-5.645l.141-.013c.156,1.79.261,3.8.444,5.479l.674,6.1ZM4.537-8.54l7.829-24.524-2.738.239L5.216-17.76c-.629,2.106-1.127,4.1-1.468,5.859l-.141.012a49.126,49.126,0,0,0-.325-5.737L1.765-32.136-.973-31.9,1.94-8.313ZM23.294-23.763l-5.862.513.851-8.068,6.178-.541.259-2.286-8.74.765L13.557-9.329l9.161-.8.26-2.286-6.669.583.928-9.206,5.827-.51Zm5.39,13.11,1.143-11.595c.281-2.854.476-5.877.577-8.362l.07-.006a66.145,66.145,0,0,0,1.8,7.234l3.57,12.1,2.247-.2,2.423-24.051-2.246.2L37.1-23.662c-.284,2.819-.357,5.62-.452,8.174l-.07.006c-.468-2.117-1.083-4.291-1.751-6.673l-3.54-12.564-2.422.212L26.438-10.456ZM45.5-35.962,43.075-11.912l2.528-.221,2.423-24.051Zm5.087,23.394,2.493-.218L54.1-23.381l1.123-.1c2.141-.187,3.024,1.009,3.383,4.3A50.258,50.258,0,0,0,59.4-13.34l2.528-.221a43.146,43.146,0,0,1-.876-5.972c-.3-3.086-1.151-4.674-2.64-5.11l-.009-.105a7.532,7.532,0,0,0,4.282-7.66,5.13,5.13,0,0,0-1.618-3.537,5.873,5.873,0,0,0-4.411-1.1,21.7,21.7,0,0,0-3.69.676Zm4.644-22.123a6.422,6.422,0,0,1,1.462-.269c2.247-.2,3.215,1.169,3.374,2.994.295,3.37-1.654,6.157-4.5,6.406l-1.228.108Z" transform="translate(16.698 37.08)" fill="#2b2e34"/>
        </g>
        <g id="Groupe_7" data-name="Groupe 7" transform="translate(11.361 26.288)">
            <path id="Tracé_29" data-name="Tracé 29" d="M-6.654-21.1l.837,7.142,2.457-.215L-6.2-37.762l-2.773.242L-16.7-13.006l2.527-.221,2.217-7.409Zm-4.738-1.6L-9.5-29.02c.494-1.635,1.015-3.767,1.451-5.645l.141-.013c.156,1.79.261,3.8.444,5.479l.674,6.1ZM1.7-38.454.12-22.506a17,17,0,0,0-.069,3.26c.289,3.3,2.4,4.848,5.248,4.6,3.826-.334,5.793-2.912,6.378-8.763l1.6-16.056-2.562.224L9.1-22.973c-.419,4.1-1.471,5.823-3.682,6.016-1.474.129-2.651-.793-2.826-2.795a13.259,13.259,0,0,1,.038-2.8l1.63-16.129Zm26.65,9.093-5.406.473-.234,2.178,3.019-.264-.751,7.988a4.713,4.713,0,0,1-1.66.428c-3.019.264-4.4-2.2-4.736-6.023-.359-4.106.713-8.834,2.76-11.312a6.322,6.322,0,0,1,4.554-2.52,6.088,6.088,0,0,1,2.386.18l.646-2.32a7.544,7.544,0,0,0-2.956-.237,9.653,9.653,0,0,0-6.558,3.474c-2.979,3.55-3.861,8.827-3.48,13.178A10.756,10.756,0,0,0,17.994-18.3,5.937,5.937,0,0,0,23.369-16.3a9.981,9.981,0,0,0,3.794-1.11Zm20.172,10.65,1.089-23.934-2.914.254-4.7,14.17c-.613,1.893-1.2,3.712-1.663,5.663l-.105.009c-.131-1.9-.351-3.613-.616-5.429l-2.04-13.615-2.808.245L31.036-17.182l2.317-.2L35.3-31.1c.278-2.076.463-4,.775-6.5l.105-.009c.177,2.425.419,4.384.7,6.376L38.887-18.01l1.685-.147,4.653-13.529c.676-1.969,1.386-4.365,2.014-6.9l.176-.015c-.209,2.459-.392,4.42-.5,6.445L46.2-18.508ZM62.641-33.528l-5.862.513.85-8.068,6.178-.541.26-2.286-8.74.765L52.9-19.095l9.162-.8.259-2.286-6.669.583.928-9.206,5.827-.51Zm5.39,13.11,1.143-11.595c.28-2.854.476-5.877.577-8.362l.07-.006a66.014,66.014,0,0,0,1.8,7.234l3.57,12.1,2.247-.2,2.423-24.051-2.246.2L76.442-33.427c-.284,2.819-.357,5.62-.452,8.174l-.07.006c-.468-2.116-1.083-4.291-1.751-6.673l-3.54-12.564-2.422.212L65.785-20.222ZM84.984-21.9l2.528-.221,2.173-21.659,4.247-.372.251-2.392-11.057.967-.25,2.392,4.282-.375Zm19.845-15.318-5.862.512.851-8.067L106-45.315l.259-2.286-8.74.765L95.092-22.786l9.161-.8.26-2.286-6.669.583.928-9.207,5.827-.509Zm-.857-15.452L100.6-48.38l2.106-.184,4.426-4.384Zm3.34,28.073a6.814,6.814,0,0,0,3.839.62c4.458-.39,6.785-3.706,6.41-7.989a8.319,8.319,0,0,0-3.394-5.645c-1.708-1.336-2.737-2.59-2.885-4.275a3.8,3.8,0,0,1,3.511-4.339,5.09,5.09,0,0,1,2.653.4l.582-2.244a5.754,5.754,0,0,0-3.192-.5,6.45,6.45,0,0,0-6.127,7.186c.2,2.247,1.556,4.037,3.426,5.607,1.715,1.406,2.709,2.663,2.872,4.524.215,2.457-1.072,4.727-3.918,4.941a5.831,5.831,0,0,1-3.236-.6Z" transform="translate(16.698 52.948)" fill="#2b2e34"/>
        </g>
    </g>
</svg>
