<?xml version="1.0" encoding="utf-8"?>
<!-- Generator: Adobe Illustrator 26.0.2, SVG Export Plug-In . SVG Version: 6.00 Build 0)  -->
<svg version="1.1" id="Calque_1" xmlns="http://www.w3.org/2000/svg" xmlns:xlink="http://www.w3.org/1999/xlink" x="0px" y="0px"
	 viewBox="0 0 231.2 98.9" style="enable-background:new 0 0 231.2 98.9;" xml:space="preserve">
<style type="text/css">
	.st0{enable-background:new    ;}
	.st1{fill:#FFFFFF;}
</style>
<g class="st0">
	<path class="st1" d="M83.9,33.3l0.3,3l-8.7,0.8l-0.3-3l2.5-0.2l-1-11.6l-2.3,0.2l-0.3-2.9l8.3-0.7l0.3,2.9L80.4,22l1,11.6
		L83.9,33.3z"/>
	<path class="st1" d="M88.5,17.6l1.2,13.7c0.2,1.8,0.9,2.2,2.6,1.7l0.4,2.6c-3.7,1-6,0.3-6.3-4L85,17.9L88.5,17.6z"/>
	<path class="st1" d="M106.3,35.5c-1.2,4-2.6,6.2-7.1,5l0.2-2.4c2,0.7,3-0.1,3.5-2.2l0.3-1.3L97,23.5l0-0.4l3.7-0.3l2,3.9l2,4.3
		l0.1,0l1-4.5l1.1-4.2l3.5-0.3l0,0.4L106.3,35.5z"/>
	<path class="st1" d="M129.4,27l-8.1,0.7c0.3,1.9,1.7,2.5,3.4,2.4c0.5,0,1.1,0,1.6-0.2c1.1-0.2,2.1-0.6,2.8-1l0.6,2.5
		c-1.4,0.8-3,1.3-4.6,1.5c-4,0.4-7.1-1.8-7.4-5.8c-0.3-4.2,2.6-6.4,5.8-6.7C127.8,20.1,129.9,22.9,129.4,27z M121.1,25.5l5.3-0.5
		c-0.1-1.6-1.4-2-2.7-1.9C122.4,23.3,121.2,24.1,121.1,25.5z"/>
	<path class="st1" d="M141.3,31.3l-0.6-6.9c-0.1-1.6-1.2-2.5-2.5-2.4c-1.3,0.1-2.5,1.2-2.3,2.9l0.6,6.9L133,32l-0.7-8.3
		c-0.1-1.2-0.1-1.6-1.3-1.5l-0.2-2.2c1.6-0.4,4.3-0.9,4.5,1.2c0.6-1.5,2.3-2.1,3.7-2.2c3.4-0.3,4.9,1.9,5.2,4.9l0.6,6.9L141.3,31.3z
		"/>
	<path class="st1" d="M157.6,30.1c-2.2,0.2-4.4-1.1-4.7-3.4c-0.4-2.9,1.6-4.5,4.3-4.7c1.1-0.1,2.3,0,3.3,0.5l-0.1-0.8
		c-0.1-1.5-1.9-1.6-3.1-1.5c-1.3,0.1-2.4,0.4-3.4,1l-0.7-2.5c1.2-0.7,2.8-1.1,4.4-1.3c3.1-0.3,5.8,0.5,6.1,4l0.4,4.3
		c0.1,1,0.1,1.6,1.3,1.4l0.2,1.9c-1.8,0.6-3.8,0.6-4-1.5C161,29.2,159.1,30,157.6,30.1z M160.5,24.7c-0.7-0.4-1.7-0.6-2.6-0.5
		c-1.1,0.2-1.9,0.9-1.7,2c0.2,0.9,1,1.2,1.8,1.2c1.1-0.1,2.5-0.8,2.6-2.1L160.5,24.7z"/>
</g>
<g class="st0">
	<path class="st1" d="M84.1,48.9c3.5-0.3,5.7,2.5,5.9,5.8c0.4,4.8-3.7,8.1-8,6.3l0.6,6.7L79.1,68l-1.2-14.1c-0.1-1.1,0-1.9-1.3-1.7
		l-0.2-2.3c1.6-0.5,3.9-0.7,4.1,1.6C81,49.9,82.6,49.1,84.1,48.9z M81.7,58.2c2.6,1.3,5.1-0.1,4.9-3.1c-0.1-1.6-1.1-3.1-2.9-3
		c-1.6,0.2-2.4,1.5-2.3,3L81.7,58.2z"/>
	<path class="st1" d="M98.8,60.4c-3.2,0.3-6.6-1.5-6.9-5.7c-0.4-4.2,2.6-6.5,5.7-6.9c3.2-0.3,6.6,1.5,7,5.7
		C105,57.7,102,60.1,98.8,60.4z M98.5,57.3c1.5-0.1,2.8-1.3,2.7-3.5c-0.2-2.1-1.7-3.1-3.1-3c-1.5,0.1-2.8,1.3-2.7,3.5
		C95.5,56.5,97,57.5,98.5,57.3z"/>
	<path class="st1" d="M118,46.3l0.7,8.4c0.1,1.1,0.2,1.5,1.2,1.3l0.2,2.2c-1.7,0.5-4.3,1-4.5-1.4c-0.6,1.5-2.2,2.1-3.7,2.3
		c-3.5,0.3-4.7-1.9-4.9-4.9l-0.6-6.9L110,47l0.6,6.9c0.1,1.7,1.1,2.5,2.3,2.4c1.4-0.1,2.4-1.2,2.2-2.9l-0.6-6.8L118,46.3z"/>
	<path class="st1" d="M128.7,45c0.9-0.1,1.9,0.1,2.6,0.5l-0.5,3c-0.8-0.4-1.5-0.5-2.3-0.5c-1.5,0.1-2.7,1.2-2.6,3.1l0.6,6.5
		l-3.4,0.3l-0.7-8.5c-0.1-1-0.2-1.6-1.3-1.4l-0.2-2.1c1.7-0.6,4.3-0.8,4.7,1.3C125.9,45.9,127.3,45.2,128.7,45z"/>
	<path class="st1" d="M142.7,44.2l3.9-0.3l0.2,2.6l-3.9,0.3l0.4,4.7c0.2,2.5,2.3,2.4,4.2,1.5l0.6,2.6c-4,1.5-7.8,1.2-8.2-3.8
		l-0.4-4.7l-2.3,0l-0.2-2.4l2.5-0.2l0-3.8l2.8-0.2L142.7,44.2z"/>
	<path class="st1" d="M156.1,55.4c-3.2,0.3-6.6-1.5-6.9-5.7c-0.4-4.2,2.6-6.5,5.7-6.9c3.2-0.3,6.6,1.5,7,5.7
		C162.2,52.7,159.2,55.1,156.1,55.4z M155.7,52.3c1.5-0.1,2.8-1.3,2.7-3.5c-0.2-2.1-1.7-3.1-3.1-3c-1.5,0.1-2.8,1.3-2.7,3.5
		C152.8,51.5,154.3,52.5,155.7,52.3z"/>
	<path class="st1" d="M175.2,41.3l0.7,8.4c0.1,1.1,0.2,1.5,1.2,1.3l0.2,2.2c-1.7,0.5-4.3,1-4.5-1.4c-0.6,1.5-2.2,2.1-3.7,2.3
		c-3.5,0.3-4.7-1.9-4.9-4.9l-0.6-6.9l3.5-0.3l0.6,6.9c0.1,1.7,1.1,2.5,2.3,2.4c1.4-0.1,2.4-1.2,2.2-2.9l-0.6-6.8L175.2,41.3z"/>
	<path class="st1" d="M182.4,49.1c0.1,1,1.1,1.4,2.1,1.2c1-0.1,2-0.5,1.9-1.6c-0.1-1-1-1-1.8-1c-2.4-0.1-5.6-0.2-5.9-3.1
		c-0.2-2.7,1.9-4.2,4.8-4.4c2.9-0.2,5.4,0.8,5.5,3.4l-3.3,0.3c-0.1-0.9-1-1.1-2-1.1c-1,0.1-1.8,0.6-1.7,1.4c0.1,0.9,1,0.9,1.8,0.9
		c2.7,0.1,5.8,0,6,3.3c0.2,2.9-2.3,4.2-5.1,4.4c-2.7,0.2-5.5-0.3-6-3.5L182.4,49.1z"/>
</g>
<g class="st0">
	<path class="st1" d="M82.1,68.3L83.3,82c0.2,1.8,0.9,2.2,2.6,1.7l0.4,2.6c-3.7,1-6,0.3-6.3-4l-1.2-13.7L82.1,68.3z"/>
	<path class="st1" d="M98.5,79.9l-8.1,0.7c0.3,1.9,1.7,2.5,3.4,2.4c0.5,0,1.1,0,1.6-0.2c1.1-0.2,2.1-0.6,2.8-1l0.6,2.5
		c-1.4,0.8-3,1.3-4.6,1.5c-4,0.4-7.1-1.8-7.4-5.8c-0.3-4.2,2.6-6.4,5.8-6.7C96.9,73,99.1,75.7,98.5,79.9z M90.2,78.4l5.3-0.5
		c-0.1-1.6-1.4-2-2.7-1.9C91.5,76.1,90.3,77,90.2,78.4z"/>
	<path class="st1" d="M104.2,81c0.1,1,1.1,1.4,2.1,1.2c1-0.1,2-0.5,1.9-1.5c-0.1-1-1-1-1.8-1c-2.4-0.1-5.6-0.2-5.9-3.1
		c-0.2-2.7,1.9-4.2,4.8-4.4c2.9-0.3,5.4,0.8,5.5,3.4l-3.3,0.3c-0.1-0.9-1-1.1-2-1.1s-1.8,0.6-1.7,1.4c0.1,0.9,1,0.9,1.8,0.9
		c2.7,0.1,5.8,0,6,3.3c0.2,2.9-2.3,4.2-5.1,4.4c-2.7,0.2-5.5-0.3-6-3.5L104.2,81z"/>
	<path class="st1" d="M129.3,82.5l-0.6-6.9c-0.1-1.7-1.2-2.5-2.5-2.4c-1.3,0.1-2.5,1.2-2.3,2.9l0.6,6.9l-3.5,0.3l-0.7-8.3
		c-0.1-1.2-0.1-1.6-1.3-1.5l-0.2-2.2c1.6-0.4,4.3-0.9,4.5,1.2c0.6-1.5,2.3-2.1,3.7-2.2c3.4-0.3,4.9,1.9,5.2,4.9l0.6,6.9L129.3,82.5z
		"/>
	<path class="st1" d="M136.2,64.3c1-0.1,2.1,0.5,2.2,1.8c0.1,1.3-0.8,2.1-1.8,2.2c-1,0.1-2.2-0.5-2.3-1.8
		C134.1,65.2,135.1,64.4,136.2,64.3z M139.4,81.7l-3.5,0.3l-1-11.9l3.5-0.3L139.4,81.7z"/>
	<path class="st1" d="M147.2,81.1l-6.9-11.3l0-0.4l3.7-0.3l1.7,3.1l1.8,3.7l0.1,0l1.1-4l1.1-3.4l3.7-0.3l0,0.4L148.6,81L147.2,81.1z
		"/>
	<path class="st1" d="M166.4,74l-8.1,0.7c0.3,1.9,1.7,2.5,3.4,2.4c0.5,0,1.1,0,1.6-0.2c1.1-0.2,2.1-0.6,2.8-1l0.6,2.5
		c-1.4,0.8-3,1.3-4.6,1.5c-4,0.4-7.1-1.8-7.4-5.8c-0.3-4.2,2.6-6.4,5.8-6.7C164.8,67,167,69.8,166.4,74z M158.1,72.4l5.3-0.5
		c-0.1-1.6-1.4-2-2.7-1.9C159.4,70.2,158.2,71,158.1,72.4z"/>
	<path class="st1" d="M173.2,78.9c-2.2,0.2-4.4-1.1-4.7-3.4c-0.4-2.9,1.6-4.5,4.3-4.7c1.1-0.1,2.3,0,3.3,0.5l-0.1-0.8
		c-0.1-1.5-1.9-1.6-3.1-1.5c-1.3,0.1-2.4,0.4-3.4,1l-0.7-2.5c1.2-0.7,2.8-1.1,4.4-1.3c3.1-0.3,5.8,0.5,6.1,4l0.4,4.3
		c0.1,1,0.1,1.6,1.3,1.4l0.2,1.9c-1.8,0.6-3.8,0.6-4-1.5C176.6,78.1,174.7,78.8,173.2,78.9z M176.2,73.5c-0.7-0.4-1.7-0.6-2.6-0.5
		c-1.1,0.2-1.9,0.9-1.7,2c0.2,0.9,1,1.2,1.8,1.2c1.1-0.1,2.5-0.8,2.6-2.1L176.2,73.5z"/>
	<path class="st1" d="M193.8,64.8l0.7,8.4c0.1,1.1,0.2,1.5,1.2,1.3l0.2,2.2c-1.7,0.5-4.3,1-4.5-1.4c-0.6,1.5-2.2,2.1-3.7,2.3
		c-3.5,0.3-4.7-1.9-4.9-4.9l-0.6-6.9l3.5-0.3l0.6,6.9c0.1,1.7,1.1,2.5,2.3,2.4c1.4-0.1,2.4-1.2,2.2-2.9l-0.6-6.8L193.8,64.8z"/>
	<path class="st1" d="M203.1,71.8l-1.2,2.5l-1.1,2l-3.5,0.3l0-0.4l3.6-6.3l-4-4.9l0-0.4l3.3-0.3l1.2,1.5l1.3,1.9l0.1,0l0.9-2.1
		l0.9-1.6l3.6-0.3l0,0.4l-3.2,5.7l4.6,5.5l0,0.4l-3.4,0.3l-1.5-1.8L203.1,71.8L203.1,71.8z"/>
	<path class="st1" d="M216.2,57.4l4.1-0.4l0.9,12.8l-3.5,0.3L216.2,57.4z M217.6,73.3c-0.1-1.2,0.8-2,1.9-2.1
		c1.2-0.1,2.1,0.5,2.2,1.7c0.1,1.1-0.7,2-1.9,2.1C218.7,75.1,217.7,74.4,217.6,73.3z"/>
</g>
<g id="Composant_9_4" transform="translate(0 44.336) rotate(-34)">
	<path id="Tracé_171" class="st1" d="M44.4,44.8c-2.2,0.6-4.8-0.1-6.9-0.8c-2.6-0.9-5-2-7.3-3.4c-4.5-2.7-8.7-5.9-12.4-9.5
		C14.3,27.7,11.4,24,9,19.9c-1.3-2.2-2.5-4.5-3.5-6.9c-0.1-0.3-0.2-0.6-0.4-0.9c-0.1,1-0.2,2-0.3,3.1c-0.1,1.5-0.5,3-1,4.5
		c-0.3,0.7-0.7,1.5-1.1,2.1c-0.9,1.2-1.8,1.1-2,1c-1.4-0.6-0.4-2.6,0-3.6c0.5-1.6,0.7-3.2,0.8-4.9c0.4-4.3,0.1-9.8,2.4-13.6
		C4.5,0,5.6-0.3,6.5,0.3C6.7,0.5,6.8,0.6,7,0.8c1.9,2.7,4.1,5.1,6.7,7.2c1.4,1.2,2.8,2.2,4.4,3.1c1.2,0.7,2.9,1.1,3.8,2.4
		c0.4,0.6,0.1,1.4-0.5,1.7c-0.1,0.1-0.2,0.1-0.4,0.1c-1.6,0.5-3.4-0.6-4.7-1.4c-1.7-1-3.2-2.1-4.7-3.3c-1.1-0.9-2.2-1.8-3.2-2.8
		c0.2,1.2,0.5,2.5,0.9,3.7c0.8,2.3,1.9,4.4,3.1,6.5c2.1,3.8,4.7,7.2,7.6,10.4c3.2,3.6,6.8,6.9,10.7,9.7c2.2,1.5,4.4,2.8,6.8,3.9
		c2.3,1.1,4.8,1.7,7.3,2C45.4,44.1,44.8,44.7,44.4,44.8z"/>
</g>
</svg>
