<svg xmlns="http://www.w3.org/2000/svg" width="73.686" height="73.686" viewBox="0 0 73.686 73.686">
    <g id="Composant_3_7" data-name="Composant 3 – 7" transform="matrix(0.966, -0.259, 0.259, 0.966, 0, 15.572)">
        <path id="Tracé_35" data-name="Tracé 35" d="M377.4,344.406h.069c2.966,0,4.809-2.977,4.8-7.275h-4.7l3.922-4.338c-.8-1.892-2.192-3.086-4.024-3.086-3.017,0-4.8,3.155-4.8,7.313,0,4.376,1.752,7.385,4.733,7.385" transform="translate(-355.71 -310.037)"/>
        <path id="Tracé_36" data-name="Tracé 36" d="M386.577,344.406h.069c2.966,0,4.809-2.977,4.8-7.275h-4.7l3.922-4.338c-.8-1.892-2.191-3.086-4.024-3.086-3.017,0-4.8,3.155-4.8,7.313,0,4.376,1.751,7.385,4.733,7.385" transform="translate(-348.239 -310.037)"/>
        <path id="Tracé_37" data-name="Tracé 37" d="M369.847,339.868l-.834.834c5.446,5.446,12.67,10.391,19.823,10.391s14.239-4.945,19.683-10.391l-.835-.834a26.785,26.785,0,0,1-37.837,0" transform="translate(-358.685 -301.766)"/>
        <path id="Tracé_38" data-name="Tracé 38" d="M393.4,318.865a30.082,30.082,0,1,0,30.082,30.08,30.116,30.116,0,0,0-30.082-30.08m0,58.983a28.9,28.9,0,1,1,28.9-28.9,28.934,28.934,0,0,1-28.9,28.9" transform="translate(-363.32 -318.865)"/>
    </g>
</svg>
