<svg xmlns="http://www.w3.org/2000/svg" width="209.586" height="209.488" viewBox="0 0 209.586 209.488">
    <ellipse id="Ellipse_2" data-name="Ellipse 2" cx="56.5" cy="57" rx="56.5" ry="57" transform="translate(46 76.488)" fill="#fff"/>
    <g transform="matrix(0.966, -0.259, 0.259, 0.966, 0, 44.298)">
        <path d="M9.237,28.441h.134c5.771.01,9.353-5.745,9.315-14.061l-9.143-.016,7.621-8.377C15.594,2.32,12.887.006,9.321,0,3.449-.01-.014,6.088,0,14.136c.015,8.462,3.43,14.3,9.237,14.305" transform="translate(53.772 89.141)" fill="#504a9e"/>
        <path d="M9.237,28.441h.134c5.774.01,9.356-5.745,9.315-14.058l-9.143-.016,7.624-8.38C15.6,2.324,12.887.006,9.321,0,3.449-.01-.014,6.088,0,14.139c.015,8.459,3.43,14.292,9.237,14.3" transform="translate(79.73 89.623)" fill="#504a9e"/>
        <path d="M75.278.129a51.718,51.718,0,0,1-36.8,15.111A52.092,52.092,0,0,1,1.619,0L0,1.613a54.376,54.376,0,0,0,38.481,15.91A54.024,54.024,0,0,0,76.91,1.748Z" transform="translate(39.629 122.434)" fill="#504a9e"/>
        <path d="M158.731,79.645c-.586-1.75-2.363-11.082-4.717-14a40.465,40.465,0,0,0-3.132-3.253l20.274-6.241L91.132,0,0,33.444,41.276,56.362,33.323,73.178A57.585,57.585,0,0,0,17.738,112.7c.057,32.1,26.372,58.258,58.664,58.315A57.959,57.959,0,0,0,126.97,83.86l-.5-13.955,18.607-5.726a21.922,21.922,0,0,1,4.84,7.292c1.772,5.25,1.2,12.242,6.482,15.167s2.927-1.741,2.927-1.741l6.454,1.174s-6.461-4.676-7.051-6.426M76.4,168.73c-31.024-.054-56.308-25.185-56.363-56.024A55.335,55.335,0,0,1,34.653,75.1,121.457,121.457,0,0,1,81.286,71.35c23.629,2.856,38.885,10.993,43.934,14.053A55.684,55.684,0,0,1,76.4,168.73" transform="translate(0 0)" fill="#504a9e"/>
    </g>
</svg>