<?xml version="1.0" encoding="utf-8"?>
<!-- Generator: Adobe Illustrator 26.0.2, SVG Export Plug-In . SVG Version: 6.00 Build 0)  -->
<svg version="1.1" id="Calque_1" xmlns="http://www.w3.org/2000/svg" xmlns:xlink="http://www.w3.org/1999/xlink" x="0px" y="0px"
	 viewBox="0 0 254.3 102.7" style="enable-background:new 0 0 254.3 102.7;" xml:space="preserve">
<style type="text/css">
	.st0{enable-background:new    ;}
	.st1{fill:#FFFFFF;}
</style>
<g class="st0">
	<path class="st1" d="M71.7,36.4l0.3,3l-8.7,0.8l-0.3-3l2.5-0.2l-1-11.6l-2.3,0.2l-0.3-2.9l8.3-0.7l0.3,2.9l-2.3,0.2l1,11.6
		L71.7,36.4z"/>
	<path class="st1" d="M76.2,20.6l1.2,13.7c0.2,1.8,0.9,2.2,2.6,1.7l0.4,2.6c-3.7,1-6,0.3-6.3-4l-1.2-13.7L76.2,20.6z"/>
	<path class="st1" d="M96.6,37.2L96,30.3c-0.1-1.6-1.2-2.5-2.5-2.4c-1.3,0.1-2.5,1.2-2.3,2.9l0.6,6.9L88.3,38l-0.7-8.3
		c-0.1-1.2-0.1-1.6-1.3-1.5L86.1,26c1.6-0.4,4.3-0.9,4.5,1.2c0.6-1.5,2.3-2.1,3.7-2.2c3.4-0.3,4.9,1.9,5.2,4.9l0.6,6.9L96.6,37.2z"
		/>
	<path class="st1" d="M113.6,30.4l-8.1,0.7c0.3,1.9,1.7,2.5,3.4,2.4c0.5,0,1.1,0,1.6-0.2c1.1-0.2,2.1-0.6,2.8-1l0.6,2.5
		c-1.4,0.8-3,1.3-4.6,1.5c-4,0.4-7.1-1.8-7.4-5.8c-0.3-4.2,2.6-6.4,5.8-6.7C112.1,23.5,114.2,26.3,113.6,30.4z M105.3,28.9l5.3-0.5
		c-0.1-1.6-1.4-2-2.7-1.9C106.6,26.7,105.5,27.5,105.3,28.9z"/>
	<path class="st1" d="M129,21.9c0.9-0.1,1.9,0.1,2.6,0.5l-0.5,3c-0.8-0.4-1.5-0.5-2.3-0.5c-1.5,0.1-2.7,1.2-2.6,3.1l0.6,6.5
		l-3.4,0.3l-0.7-8.5c-0.1-1-0.2-1.6-1.3-1.4l-0.2-2.1c1.7-0.5,4.3-0.8,4.7,1.3C126.2,22.9,127.6,22.1,129,21.9z"/>
	<path class="st1" d="M144.7,27.7l-8.1,0.7c0.3,1.9,1.7,2.5,3.4,2.4c0.5,0,1.1,0,1.6-0.2c1.1-0.2,2.1-0.6,2.8-1l0.6,2.5
		c-1.4,0.8-3,1.3-4.6,1.5c-4,0.4-7.1-1.8-7.4-5.8c-0.3-4.2,2.6-6.4,5.8-6.7C143.1,20.8,145.3,23.6,144.7,27.7z M136.4,26.2l5.3-0.5
		c-0.1-1.6-1.4-2-2.7-1.9C137.7,23.9,136.5,24.8,136.4,26.2z"/>
	<path class="st1" d="M150.4,28.8c0.1,1,1.1,1.4,2.1,1.2c1-0.1,2-0.5,1.9-1.6c-0.1-1-1-1-1.8-1c-2.4-0.1-5.6-0.2-5.9-3.1
		c-0.2-2.7,1.9-4.2,4.8-4.4c2.9-0.3,5.4,0.8,5.5,3.4l-3.3,0.3c-0.1-0.9-1-1.1-2-1.1c-1,0.1-1.8,0.6-1.7,1.4c0.1,0.9,1,0.9,1.8,0.9
		c2.7,0.1,5.8,0,6,3.3c0.2,2.9-2.3,4.2-5.1,4.4c-2.7,0.2-5.5-0.3-5.9-3.5L150.4,28.8z"/>
	<path class="st1" d="M164.2,19.3l3.9-0.3l0.2,2.6l-3.9,0.3l0.4,4.7c0.2,2.5,2.3,2.4,4.2,1.5l0.6,2.6c-4,1.5-7.8,1.2-8.2-3.8
		l-0.4-4.7l-2.3,0l-0.2-2.4l2.5-0.2l0-3.8l2.8-0.2L164.2,19.3z"/>
	<path class="st1" d="M182.4,24.4l-8.1,0.7c0.3,1.9,1.7,2.5,3.4,2.4c0.5,0,1.1,0,1.6-0.2c1.1-0.2,2.1-0.6,2.8-1l0.6,2.5
		c-1.4,0.8-3,1.3-4.6,1.5c-4,0.4-7.1-1.8-7.4-5.8c-0.3-4.2,2.6-6.4,5.8-6.7C180.8,17.5,182.9,20.3,182.4,24.4z M174.1,22.9l5.3-0.5
		c-0.1-1.6-1.4-2-2.7-1.9C175.3,20.6,174.2,21.5,174.1,22.9z"/>
	<path class="st1" d="M197.7,16c3.5-0.3,5.7,2.5,5.9,5.8c0.4,4.8-3.7,8.1-8,6.3l0.6,6.7l-3.5,0.3l-1.2-14.1c-0.1-1.1,0-1.9-1.3-1.7
		l-0.2-2.3c1.6-0.5,3.9-0.7,4.1,1.6C194.6,16.9,196.1,16.1,197.7,16z M195.2,25.2c2.6,1.3,5.1-0.1,4.9-3.1c-0.1-1.6-1.1-3.1-2.9-3
		c-1.6,0.2-2.3,1.5-2.3,3L195.2,25.2z"/>
	<path class="st1" d="M208.4,9.1l1.2,13.7c0.2,1.8,0.9,2.2,2.6,1.7l0.4,2.6c-3.7,1-6,0.3-6.3-4L205,9.4L208.4,9.1z"/>
	<path class="st1" d="M224.7,13.9l0.7,8.4c0.1,1.1,0.2,1.5,1.2,1.3l0.2,2.2c-1.7,0.5-4.3,1-4.5-1.4c-0.5,1.5-2.2,2.1-3.7,2.3
		c-3.5,0.3-4.7-1.9-4.9-4.9l-0.6-6.9l3.5-0.3l0.6,6.9c0.1,1.7,1.1,2.5,2.3,2.4c1.4-0.1,2.4-1.2,2.2-2.9l-0.6-6.8L224.7,13.9z"/>
	<path class="st1" d="M231.9,21.7c0.1,1,1.1,1.4,2.1,1.2c1-0.1,2-0.5,1.9-1.6c-0.1-1-1-1-1.8-1c-2.4-0.1-5.6-0.2-5.9-3.1
		c-0.2-2.7,1.9-4.2,4.8-4.4c2.9-0.2,5.4,0.8,5.5,3.4l-3.3,0.3c-0.1-0.9-1-1.1-2-1.1c-1,0.1-1.8,0.6-1.7,1.4c0.1,0.9,1,0.9,1.8,0.9
		c2.7,0.1,5.8,0,6,3.3c0.2,2.9-2.3,4.2-5.1,4.4c-2.7,0.2-5.5-0.3-5.9-3.5L231.9,21.7z"/>
</g>
<g class="st0">
	<path class="st1" d="M92.2,69l-3.5,0.3l-0.6-6.7c-0.9,0.5-1.9,0.8-2.8,0.9c-3.2,0.3-5.9-2.1-6.3-5.8c-0.4-4.7,2.7-6.7,6.3-6.9
		c1.7-0.2,3.6,0.2,5.3,0.6L92.2,69z M87.4,53.8c-0.6-0.1-1.2-0.1-1.7-0.1c-1.9,0.1-3.3,1.3-3.1,3.8c0.2,2.1,1.6,3.2,3.3,3.1
		c0.7-0.1,1.4-0.3,2.1-0.8L87.4,53.8z"/>
	<path class="st1" d="M105.2,49.5l0.7,8.4c0.1,1.1,0.2,1.5,1.2,1.3l0.2,2.2c-1.7,0.5-4.3,1-4.5-1.4c-0.6,1.5-2.2,2.1-3.7,2.3
		c-3.5,0.3-4.7-1.9-4.9-4.9l-0.6-6.9l3.5-0.3l0.6,6.9c0.1,1.7,1.1,2.5,2.3,2.4c1.4-0.1,2.4-1.2,2.2-2.9l-0.6-6.8L105.2,49.5z"/>
	<path class="st1" d="M111.9,46l-0.7,3.2l-2,0.2l0.4-2.2c-0.8-0.2-1.5-0.8-1.6-1.7c-0.1-1.2,0.7-2,1.9-2.1c0.9-0.1,1.7,0.4,2.1,1.1
		c0.1,0.2,0.1,0.4,0.2,0.6C112,45.5,112,45.7,111.9,46z"/>
	<path class="st1" d="M119.4,60.6c-2.2,0.2-4.4-1.1-4.7-3.4c-0.4-2.9,1.6-4.5,4.3-4.7c1.1-0.1,2.3,0,3.3,0.5l-0.1-0.8
		c-0.1-1.5-1.9-1.6-3.1-1.5c-1.3,0.1-2.4,0.4-3.4,1l-0.7-2.5c1.2-0.7,2.8-1.1,4.4-1.3c3.1-0.3,5.8,0.5,6.1,4l0.4,4.3
		c0.1,1,0.1,1.6,1.3,1.4l0.2,1.9c-1.8,0.6-3.8,0.6-4-1.5C122.8,59.7,121,60.4,119.4,60.6z M121.4,45.9l-2.6,0.2l-2.2-2.3l0-0.3
		l2.8-1.3l2,3.4L121.4,45.9z M122.4,55.1c-0.7-0.4-1.7-0.6-2.6-0.5c-1.1,0.2-1.9,0.9-1.7,2c0.2,0.9,1,1.2,1.8,1.2
		c1.1-0.1,2.5-0.8,2.6-2.1L122.4,55.1z"/>
	<path class="st1" d="M143.4,50.5c-0.5-1.1-1.6-1.5-2.7-1.4c-1.5,0.2-2.9,1.4-2.8,3.5c0.2,2.2,1.8,3.2,3.3,3
		c1.1-0.1,2.1-0.8,2.4-2.1l3.3-0.3c-0.2,3.3-2.8,5.1-5.6,5.4c-3.2,0.3-6.6-1.5-6.9-5.7c-0.4-4.2,2.7-6.6,5.9-6.9
		c2.7-0.2,5.5,1.1,6.3,4.2L143.4,50.5z"/>
	<path class="st1" d="M158.1,56.9l-0.6-6.9c-0.1-1.7-1.1-2.5-2.4-2.4c-1.4,0.1-2.5,1.2-2.3,2.9l0.6,6.9l-3.5,0.3l-1.6-18.2l3.5-0.3
		l0.7,7.5c0.7-1.1,1.9-1.8,3.4-1.9c3.4-0.3,4.9,1.8,5.2,4.9l0.6,6.9L158.1,56.9z"/>
	<path class="st1" d="M170.4,56.1c-3.2,0.3-6.6-1.5-7-5.7c-0.4-4.2,2.6-6.5,5.7-6.9c3.2-0.3,6.6,1.5,7,5.7
		C176.6,53.5,173.6,55.8,170.4,56.1z M170.1,53.1c1.5-0.1,2.8-1.3,2.7-3.5c-0.2-2.1-1.7-3.1-3.1-3s-2.8,1.3-2.7,3.5
		C167.1,52.2,168.7,53.2,170.1,53.1z"/>
	<path class="st1" d="M179.6,37.5c1-0.1,2.1,0.5,2.2,1.8c0.1,1.3-0.8,2.1-1.8,2.2c-1,0.1-2.2-0.5-2.3-1.8
		C177.5,38.3,178.5,37.6,179.6,37.5z M182.8,54.8l-3.5,0.3l-1-11.9l3.5-0.3L182.8,54.8z"/>
	<path class="st1" d="M188.5,50.6c0.1,1,1.1,1.4,2.1,1.2c1-0.1,2-0.5,1.9-1.6c-0.1-1-1-1-1.8-1c-2.4-0.1-5.6-0.2-5.9-3.1
		c-0.2-2.7,1.9-4.2,4.8-4.4c2.9-0.2,5.4,0.8,5.5,3.4l-3.3,0.3c-0.1-0.9-1-1.1-2-1.1c-1,0.1-1.8,0.6-1.7,1.4c0.1,0.9,1,0.9,1.8,0.9
		c2.7,0.1,5.8,0,6,3.3c0.2,2.9-2.3,4.2-5.1,4.4c-2.7,0.2-5.5-0.3-6-3.5L188.5,50.6z"/>
	<path class="st1" d="M199.1,35.8c1-0.1,2.1,0.5,2.2,1.8c0.1,1.3-0.8,2.1-1.8,2.2c-1,0.1-2.2-0.5-2.3-1.8
		C197,36.6,198,35.9,199.1,35.8z M202.3,53.1l-3.5,0.3l-1-11.9l3.5-0.3L202.3,53.1z"/>
	<path class="st1" d="M211.6,39.8c0.9-0.1,1.9,0.1,2.6,0.5l-0.5,3c-0.8-0.4-1.5-0.5-2.3-0.5c-1.5,0.1-2.7,1.2-2.6,3.1l0.6,6.5
		l-3.4,0.3l-0.7-8.5c-0.1-1-0.2-1.6-1.3-1.4l-0.2-2.1c1.7-0.5,4.3-0.8,4.7,1.3C208.8,40.7,210.1,39.9,211.6,39.8z"/>
	<path class="st1" d="M221.1,33.9l4.1-0.4l0.9,12.8l-3.5,0.3L221.1,33.9z M222.5,49.8c-0.1-1.2,0.8-2,1.9-2.1
		c1.2-0.1,2.1,0.5,2.2,1.7c0.1,1.1-0.7,2-1.9,2.1C223.6,51.6,222.6,50.9,222.5,49.8z"/>
</g>
<g id="Composant_9_5" transform="translate(0 39.501) rotate(-34)">
	<path id="Tracé_171" class="st1" d="M40.5,40.9c-2,0.6-4.4-0.1-6.3-0.7c-2.3-0.8-4.6-1.9-6.7-3.1c-4.1-2.4-7.9-5.3-11.3-8.7
		c-3.1-3.1-5.7-6.5-7.9-10.2c-1.2-2-2.3-4.1-3.2-6.3c-0.1-0.2-0.2-0.5-0.3-0.8C4.6,12,4.5,13,4.4,13.9C4.3,15.3,4,16.7,3.5,18
		c-0.3,0.7-0.6,1.3-1,1.9c-0.8,1.1-1.6,1-1.8,0.9c-1.3-0.6-0.4-2.4,0-3.3c0.4-1.5,0.7-2.9,0.7-4.5C1.7,9.2,1.4,4.2,3.5,0.7
		c0.5-0.8,1.6-1,2.4-0.4c0.2,0.1,0.3,0.3,0.4,0.4c1.7,2.4,3.8,4.7,6.1,6.6c1.2,1.1,2.6,2,4,2.9c1.1,0.7,2.7,1,3.4,2.2
		c0.3,0.6,0.1,1.3-0.4,1.6C19.3,14,19.2,14,19.1,14c-1.5,0.5-3.1-0.6-4.3-1.3c-1.5-0.9-2.9-1.9-4.3-3c-1-0.8-2-1.7-2.9-2.6
		c0.2,1.1,0.5,2.3,0.9,3.3c0.8,2.1,1.7,4,2.8,5.9c1.9,3.4,4.3,6.6,6.9,9.5c2.9,3.3,6.2,6.3,9.7,8.8c2,1.3,4,2.5,6.2,3.5
		c2.1,1,4.4,1.6,6.7,1.8C41.3,40.2,40.9,40.7,40.5,40.9z"/>
</g>
</svg>
