<?xml version="1.0" encoding="utf-8"?>
<!-- Generator: Adobe Illustrator 26.0.2, SVG Export Plug-In . SVG Version: 6.00 Build 0)  -->
<svg version="1.1" id="Calque_1" xmlns="http://www.w3.org/2000/svg" xmlns:xlink="http://www.w3.org/1999/xlink" x="0px" y="0px"
	 viewBox="0 0 423 74" style="enable-background:new 0 0 423 74;" xml:space="preserve">
<style type="text/css">
	.st0{enable-background:new    ;}
	.st1{fill:#030303;}
</style>
<g class="st0">
	<path class="st1" d="M23.5,44.8v0.7h-5.6l-5-8.1H8.5v8.1H3.2V21c3.5,0,7,0,10.5,0c5.6,0,8.6,4.1,8.6,8.4c0,3.1-1.6,5.8-4.4,7.2
		L23.5,44.8z M13.7,33.1c2.2,0,3.6-1.7,3.6-3.8c0-2.1-1.4-3.7-3.6-3.7H8.4v7.5H13.7z"/>
	<path class="st1" d="M41.5,38.1H30.1c0.2,2.6,2.1,3.6,4.5,3.8c0.7,0,1.5,0.1,2.2,0c1.5-0.2,3-0.6,4-1l0.6,3.6
		c-2,0.9-4.3,1.5-6.5,1.5c-5.7,0.1-9.7-3.4-9.7-9.1c0.1-5.9,4.4-8.6,8.9-8.6C40.2,28.2,42.8,32.4,41.5,38.1z M30.1,34.9h7.4
		c0.1-2.2-1.7-3-3.5-3C32.2,32,30.5,33,30.1,34.9z"/>
	<path class="st1" d="M49.3,40.4c0,1.4,1.4,2,2.8,2c1.4,0,2.9-0.4,2.9-1.9c0-1.4-1.2-1.5-2.4-1.7c-3.4-0.5-7.8-0.9-7.8-5
		c0-3.8,3.1-5.6,7.2-5.6c4,0,7.5,1.8,7.3,5.4h-4.6c0-1.2-1.2-1.7-2.6-1.7c-1.4,0-2.6,0.6-2.6,1.8c0,1.3,1.3,1.4,2.4,1.5
		c3.8,0.5,8.1,0.8,8,5.3c-0.1,4-3.8,5.5-7.6,5.5s-7.7-1.1-7.9-5.6H49.3z"/>
	<path class="st1" d="M69.8,28.7h5.5v3.7h-5.5v6.5c0,3.5,2.9,3.7,5.7,2.7l0.5,3.7c-5.8,1.6-11,0.7-11-6.3v-6.6L61.8,32v-3.4h3.5
		l0.5-5.2h3.9V28.7z"/>
	<path class="st1" d="M94.5,38.1H83c0.2,2.6,2.1,3.6,4.5,3.8c0.7,0,1.5,0.1,2.2,0c1.5-0.2,3-0.6,4-1l0.6,3.6c-2,0.9-4.3,1.5-6.5,1.5
		c-5.7,0.1-9.7-3.4-9.7-9.1c0.1-5.9,4.4-8.6,8.9-8.6C93.2,28.2,95.8,32.4,94.5,38.1z M83.1,34.9h7.4c0.1-2.2-1.7-3-3.5-3
		C85.1,32,83.5,33,83.1,34.9z"/>
	<path class="st1" d="M111.6,29.2l-7.4,12.1h7.4v4.2H97.2V45l7.5-12.3h-6.9v-4.1h13.9V29.2z"/>
	<path class="st1" d="M135.4,34.7c-0.6-1.6-2-2.3-3.5-2.3c-2.1,0-4.3,1.6-4.3,4.6c0,3,2.2,4.7,4.3,4.7c1.5,0,3-0.8,3.6-2.6h4.7
		c-0.7,4.5-4.5,6.8-8.4,6.8c-4.4,0-9-2.9-9-8.9c0-5.9,4.6-8.9,9-8.9c3.8,0,7.5,2.2,8.3,6.6H135.4z"/>
	<path class="st1" d="M151.5,45.9c-4.5,0-9-2.9-9-8.9c0-5.8,4.4-8.8,8.9-8.9c4.5,0,9,2.9,9,8.9C160.4,42.9,155.9,45.9,151.5,45.9z
		 M151.4,41.6c2.1,0,4.1-1.5,4.1-4.6c0-3-2-4.6-4-4.6c-2.1,0-4.1,1.5-4.1,4.6C147.3,40.1,149.3,41.6,151.4,41.6z"/>
	<path class="st1" d="M176.1,45.5v-9.8c0.1-2.3-1.4-3.6-3.2-3.6c-1.9,0-3.6,1.3-3.6,3.7v9.7h-4.9V33.9c0-1.7,0-2.2-1.6-2.2v-3
		c2.2-0.4,6.2-0.8,6.2,2.3c0.9-2,3.4-2.6,5.4-2.6c4.8,0,6.7,3.3,6.7,7.5v9.8H176.1z"/>
	<path class="st1" d="M197.6,45.5v-9.8c0.1-2.3-1.4-3.6-3.2-3.6c-1.9,0-3.6,1.3-3.6,3.7v9.7h-4.9V33.9c0-1.7,0-2.2-1.6-2.2v-3
		c2.2-0.4,6.2-0.8,6.2,2.3c0.9-2,3.4-2.6,5.4-2.6c4.8,0,6.7,3.3,6.7,7.5v9.8H197.6z"/>
	<path class="st1" d="M222.2,38.1h-11.4c0.2,2.6,2.1,3.6,4.5,3.8c0.7,0,1.5,0.1,2.2,0c1.5-0.2,3-0.6,4-1l0.6,3.6
		c-2,0.9-4.3,1.5-6.5,1.5c-5.7,0.1-9.7-3.4-9.7-9.1c0.1-5.9,4.4-8.6,8.9-8.6C220.9,28.2,223.5,32.4,222.2,38.1z M210.8,34.9h7.4
		c0.1-2.2-1.7-3-3.5-3C212.9,32,211.2,33,210.8,34.9z"/>
	<path class="st1" d="M237.8,34.7c-0.6-1.6-2-2.3-3.5-2.3c-2.1,0-4.3,1.6-4.3,4.6c0,3,2.2,4.7,4.3,4.7c1.5,0,3-0.8,3.6-2.6h4.7
		c-0.7,4.5-4.5,6.8-8.4,6.8c-4.4,0-9-2.9-9-8.9c0-5.9,4.6-8.9,9-8.9c3.8,0,7.5,2.2,8.3,6.6H237.8z"/>
	<path class="st1" d="M252.3,28.7h5.5v3.7h-5.5v6.5c0,3.5,2.9,3.7,5.7,2.7l0.5,3.7c-5.8,1.6-11,0.7-11-6.3v-6.6l-3.2-0.3v-3.4h3.5
		l0.5-5.2h3.9V28.7z"/>
	<path class="st1" d="M277,38.1h-11.4c0.2,2.6,2.1,3.6,4.5,3.8c0.7,0,1.5,0.1,2.2,0c1.5-0.2,3-0.6,4-1l0.6,3.6
		c-2,0.9-4.3,1.5-6.5,1.5c-5.7,0.1-9.7-3.4-9.7-9.1c0.1-5.9,4.4-8.6,8.9-8.6C275.7,28.2,278.3,32.4,277,38.1z M265.6,34.9h7.4
		c0.1-2.2-1.7-3-3.5-3C267.7,32,266,33,265.6,34.9z M267,25.7v-0.4l2.5-5.1l4.2,1.5v0.4l-2.9,3.6H267z"/>
	<path class="st1" d="M284.8,40.4c0,1.4,1.4,2,2.8,2c1.4,0,2.9-0.4,2.9-1.9c0-1.4-1.2-1.5-2.4-1.7c-3.4-0.5-7.8-0.9-7.8-5
		c0-3.8,3.1-5.6,7.2-5.6c4,0,7.5,1.8,7.3,5.4h-4.6c0-1.2-1.2-1.7-2.6-1.7c-1.4,0-2.6,0.6-2.6,1.8c0,1.3,1.3,1.4,2.4,1.5
		c3.8,0.5,8.1,0.8,8,5.3c-0.1,4-3.8,5.5-7.6,5.5s-7.7-1.1-7.9-5.6H284.8z"/>
	<path class="st1" d="M307.5,21h5.7l-0.3,18h-5L307.5,21z M307.5,43.4c0-1.6,1.3-2.7,2.9-2.7c1.6,0,2.9,1,2.9,2.7
		c0,1.6-1.2,2.7-2.9,2.7C308.8,46,307.5,44.9,307.5,43.4z"/>
</g>
<g id="Composant_9_1" transform="matrix(0.799, -0.602, 0.602, 0.799, 348.914, 31.896)">
	<path id="Tracé_171" class="st1" d="M0.8,0.3c2.6-0.7,5.6,0.1,8.1,0.9c3,1,5.9,2.4,8.6,4c5.3,3.1,10.2,6.8,14.6,11.1
		c3.9,3.9,7.4,8.3,10.2,13.1c1.6,2.6,3,5.3,4.1,8.1c0.1,0.3,0.3,0.7,0.4,1c0.1-1.2,0.2-2.4,0.4-3.6c0.2-1.8,0.6-3.6,1.2-5.2
		c0.3-0.9,0.8-1.7,1.3-2.5c1-1.4,2.1-1.3,2.4-1.2c1.7,0.7,0.5,3,0.1,4.2c-0.5,1.9-0.9,3.8-0.9,5.7c-0.4,5-0.1,11.4-2.8,15.9
		c-0.7,1-2.1,1.3-3.1,0.6c-0.2-0.2-0.4-0.3-0.6-0.6c-2.2-3.1-4.9-6-7.8-8.4c-1.6-1.4-3.3-2.6-5.2-3.7c-1.5-0.9-3.5-1.3-4.4-2.8
		c-0.4-0.7-0.2-1.6,0.6-2c0.1-0.1,0.3-0.1,0.4-0.2c1.9-0.6,4,0.7,5.6,1.6c1.9,1.1,3.8,2.4,5.5,3.9c1.3,1,2.5,2.2,3.7,3.3
		c-0.3-1.5-0.6-2.9-1.1-4.3c-1-2.6-2.2-5.2-3.6-7.6c-2.5-4.4-5.5-8.5-8.9-12.2c-3.8-4.2-8-8-12.6-11.4c-2.5-1.7-5.2-3.2-8-4.5
		c-2.7-1.2-5.7-2-8.6-2.4C-0.4,1.2,0.3,0.4,0.8,0.3z"/>
</g>
</svg>
