<?xml version="1.0" encoding="utf-8"?>
<!-- Generator: Adobe Illustrator 26.0.2, SVG Export Plug-In . SVG Version: 6.00 Build 0)  -->
<svg version="1.1" id="Calque_1" xmlns="http://www.w3.org/2000/svg" xmlns:xlink="http://www.w3.org/1999/xlink" x="0px" y="0px"
	 viewBox="0 0 164.7 121.6" style="enable-background:new 0 0 164.7 121.6;" xml:space="preserve">
<style type="text/css">
	.st0{enable-background:new    ;}
	.st1{fill:#FFFFFF;}
</style>
<g class="st0">
	<path class="st1" d="M42.7,81.1l-1.5-17.4c2.5-0.2,5-0.4,7.4-0.7c4.1-0.4,6.5,2.5,6.8,5.8c0.3,3.2-1.7,6.3-5.7,6.7L46,75.9l0.4,4.9
		L42.7,81.1z M49.4,72.4c1.6-0.1,2.5-1.6,2.4-3.3c-0.1-1.6-1.3-2.9-2.9-2.8c-1.3,0.1-2.5,0.2-3.8,0.3l0.5,6.1L49.4,72.4z"/>
	<path class="st1" d="M64.6,66.8c0.9-0.1,1.9,0.1,2.6,0.5l-0.5,3c-0.8-0.4-1.5-0.5-2.3-0.5c-1.5,0.1-2.7,1.2-2.6,3.1l0.6,6.5
		L59,79.7l-0.7-8.5c-0.1-1-0.2-1.6-1.3-1.4l-0.2-2.1c1.7-0.5,4.3-0.8,4.7,1.3C61.8,67.7,63.2,66.9,64.6,66.8z"/>
	<path class="st1" d="M80.3,72.5l-8.1,0.7c0.3,1.9,1.7,2.5,3.4,2.4c0.5,0,1.1,0,1.6-0.2c1.1-0.2,2.1-0.6,2.8-1l0.6,2.5
		c-1.4,0.8-3,1.3-4.6,1.5c-4,0.4-7.1-1.8-7.4-5.8c-0.3-4.2,2.6-6.4,5.8-6.7C78.8,65.6,80.9,68.4,80.3,72.5z M72,71l5.3-0.5
		c-0.1-1.6-1.4-2-2.7-1.9C73.3,68.8,72.1,69.6,72,71z"/>
	<path class="st1" d="M92.3,76.8l-0.6-6.9c-0.1-1.6-1.2-2.5-2.5-2.4c-1.3,0.1-2.5,1.2-2.3,2.9l0.6,6.9L84,77.5l-0.7-8.3
		c-0.1-1.2-0.1-1.6-1.3-1.5l-0.2-2.2c1.6-0.4,4.3-0.9,4.5,1.2c0.6-1.5,2.3-2.1,3.7-2.2c3.4-0.3,4.9,1.9,5.2,4.9l0.6,6.9L92.3,76.8z"
		/>
	<path class="st1" d="M109.3,70l-8.1,0.7c0.3,1.9,1.7,2.5,3.4,2.4c0.5,0,1.1,0,1.6-0.2c1.1-0.2,2.1-0.6,2.8-1l0.6,2.5
		c-1.4,0.8-3,1.3-4.6,1.5c-4,0.4-7.1-1.8-7.4-5.8c-0.3-4.2,2.6-6.4,5.8-6.7C107.8,63.1,109.9,65.9,109.3,70z M101,68.5l5.3-0.5
		c-0.1-1.6-1.4-2-2.7-1.9C102.3,66.2,101.2,67.1,101,68.5z"/>
	<path class="st1" d="M120.9,62.6l-4.5,9l5.2-0.5l0.3,3l-10.3,0.9l0-0.4l4.5-9.2l-4.9,0.4l-0.3-2.9l9.9-0.9L120.9,62.6z"/>
</g>
<g class="st0">
	<path class="st1" d="M29.7,105.3c-0.5,1.6-1.8,2.5-3.4,2.6c-3.6,0.4-5.8-2.5-6.1-5.8c-0.4-4.7,3.6-8,8-6.3l-0.6-6.6l3.5-0.3
		l1.2,14.2c0.1,1.2,0,1.8,1.3,1.6l0.2,2.3c-1.7,0.6-3.9,0.7-4.1-1.4L29.7,105.3z M28.5,98.8c-2.6-1.2-5.2,0-4.9,3.1
		c0.1,1.7,1.1,3.1,2.9,3c1.5-0.1,2.4-1.5,2.3-3L28.5,98.8z"/>
	<path class="st1" d="M46.7,100.6l-8.1,0.7c0.3,1.9,1.7,2.5,3.4,2.4c0.5,0,1.1,0,1.6-0.2c1.1-0.2,2.1-0.6,2.8-1l0.6,2.5
		c-1.4,0.8-3,1.3-4.6,1.5c-4,0.4-7.1-1.8-7.4-5.8c-0.3-4.2,2.6-6.4,5.8-6.7C45.2,93.6,47.3,96.4,46.7,100.6z M38.4,99l5.3-0.5
		c-0.1-1.6-1.4-2-2.7-1.9C39.7,96.8,38.6,97.6,38.4,99z"/>
	<path class="st1" d="M52.4,101.7c0.1,1,1.1,1.4,2.1,1.2c1-0.1,2-0.5,1.9-1.5c-0.1-1-1-1-1.8-1c-2.4-0.1-5.6-0.2-5.9-3.1
		c-0.2-2.7,1.9-4.2,4.8-4.4c2.9-0.3,5.4,0.8,5.5,3.4l-3.3,0.3c-0.1-0.9-1-1.1-2-1.1c-1,0.1-1.8,0.6-1.7,1.4c0.1,0.9,1,0.9,1.8,0.9
		c2.7,0.1,5.8,0,6,3.3c0.2,2.9-2.3,4.2-5.1,4.4c-2.7,0.2-5.5-0.3-6-3.5L52.4,101.7z"/>
	<path class="st1" d="M77.5,103.2l-0.6-6.9c-0.1-1.6-1.2-2.5-2.5-2.4c-1.3,0.1-2.5,1.2-2.3,2.9l0.6,6.9l-3.5,0.3l-0.7-8.3
		c-0.1-1.2-0.1-1.6-1.3-1.5L67,92c1.6-0.4,4.3-0.9,4.5,1.2c0.6-1.5,2.3-2.1,3.7-2.2c3.4-0.3,4.9,1.9,5.2,4.9l0.6,6.9L77.5,103.2z"/>
	<path class="st1" d="M89.8,102.4c-3.2,0.3-6.6-1.5-6.9-5.7c-0.4-4.2,2.6-6.5,5.7-6.8c3.2-0.3,6.6,1.5,7,5.7
		C96,99.7,93,102.1,89.8,102.4z M89.5,99.3c1.5-0.1,2.8-1.3,2.7-3.5c-0.2-2.1-1.7-3.1-3.1-3s-2.8,1.3-2.7,3.5
		C86.5,98.5,88,99.5,89.5,99.3z"/>
	<path class="st1" d="M102,89l3.9-0.3l0.2,2.6l-3.9,0.3l0.4,4.7c0.2,2.5,2.3,2.4,4.2,1.5l0.6,2.6c-4,1.5-7.8,1.2-8.2-3.8l-0.4-4.7
		l-2.3,0l-0.2-2.4l2.5-0.2l0-3.8l2.8-0.2L102,89z"/>
	<path class="st1" d="M120.2,94.2l-8.1,0.7c0.3,1.9,1.7,2.5,3.4,2.4c0.5,0,1.1,0,1.6-0.2c1.1-0.2,2.1-0.6,2.8-1l0.6,2.5
		c-1.4,0.8-3,1.3-4.6,1.5c-4,0.4-7.1-1.8-7.4-5.8c-0.3-4.2,2.6-6.4,5.8-6.7C118.6,87.2,120.7,90,120.2,94.2z M111.9,92.6l5.3-0.5
		c-0.1-1.6-1.4-2-2.7-1.9C113.1,90.4,112,91.2,111.9,92.6z"/>
	<path class="st1" d="M125.8,95.3c0.1,1,1.1,1.4,2.1,1.2c1-0.1,2-0.5,1.9-1.6c-0.1-1-1-1-1.8-1c-2.4-0.1-5.6-0.2-5.9-3.1
		c-0.2-2.7,1.9-4.2,4.8-4.4c2.9-0.3,5.4,0.8,5.5,3.4l-3.3,0.3c-0.1-0.9-1-1.1-2-1.1c-1,0.1-1.8,0.6-1.7,1.4c0.1,0.9,1,0.9,1.8,0.9
		c2.7,0.1,5.8,0,6,3.3c0.2,2.9-2.3,4.2-5.1,4.4c-2.7,0.2-5.5-0.3-6-3.5L125.8,95.3z"/>
	<path class="st1" d="M140.8,80.1l4.1-0.4l0.9,12.8l-3.5,0.3L140.8,80.1z M142.2,96c-0.1-1.2,0.8-2,1.9-2.1c1.2-0.1,2.1,0.5,2.2,1.7
		c0.1,1.1-0.7,2-1.9,2.1C143.3,97.8,142.3,97.1,142.2,96z"/>
</g>
<g id="Composant_9_3" transform="translate(86.708 43.058) rotate(-82)">
	<path id="Tracé_171" class="st1" d="M0.6,0.2C2.8-0.4,5.3,0.3,7.3,1c2.5,0.9,4.8,2,7.1,3.3c4.3,2.6,8.4,5.6,12,9.2
		c3.2,3.2,6,6.9,8.4,10.8c1.3,2.1,2.4,4.3,3.4,6.6c0.1,0.3,0.2,0.5,0.3,0.8c0.1-1,0.2-2,0.3-3c0.1-1.5,0.5-2.9,1-4.3
		c0.3-0.7,0.6-1.4,1-2.1c0.8-1.2,1.7-1.1,1.9-1c1.4,0.6,0.4,2.5,0,3.5c-0.4,1.5-0.7,3.1-0.8,4.7c-0.4,4.1-0.1,9.4-2.3,13.1
		c-0.6,0.8-1.7,1-2.5,0.5c-0.2-0.1-0.3-0.3-0.5-0.5c-1.8-2.6-4-4.9-6.4-7c-1.3-1.1-2.7-2.1-4.2-3c-1.2-0.7-2.8-1.1-3.6-2.3
		c-0.3-0.6-0.1-1.3,0.5-1.7c0.1-0.1,0.2-0.1,0.3-0.1c1.6-0.5,3.3,0.6,4.6,1.3c1.6,0.9,3.1,2,4.5,3.2c1.1,0.9,2.1,1.8,3,2.7
		c-0.2-1.2-0.5-2.4-0.9-3.5c-0.8-2.2-1.8-4.3-3-6.3c-2-3.6-4.5-7-7.3-10.1c-3.1-3.5-6.5-6.6-10.3-9.4C11.8,5.2,9.6,4,7.3,2.9
		C5.1,1.9,2.7,1.2,0.2,1C-0.3,1,0.2,0.3,0.6,0.2z"/>
</g>
</svg>
